STARTFONT 2.3
FONT -FontForge-Zen Tokyo Zoo-Book-R-Normal--18-180-72-72-P-84-ISO10646-1
SIZE 18 72 72  2
FONTBOUNDINGBOX 24 26 -2 -5
COMMENT "Generated by fontforge, http://fontforge.sourceforge.net"
COMMENT "Copyright 2021 The Zen Tokyo Zoo Project Authors (https://github.com/googlefonts/zen-tokyo-zoo)"
STARTPROPERTIES 40
FOUNDRY "FontForge"
FAMILY_NAME "Zen Tokyo Zoo"
WEIGHT_NAME "Book"
SLANT "R"
SETWIDTH_NAME "Normal"
ADD_STYLE_NAME ""
PIXEL_SIZE 18
POINT_SIZE 180
RESOLUTION_X 72
RESOLUTION_Y 72
SPACING "P"
AVERAGE_WIDTH 84
CHARSET_REGISTRY "ISO10646"
CHARSET_ENCODING "1"
FONTNAME_REGISTRY ""
CHARSET_COLLECTIONS "ISO10646-1"
BITS_PER_PIXEL 2
FONT_NAME "ZenTokyoZoo-Regular"
FACE_NAME "Zen Tokyo Zoo Regular"
COPYRIGHT "Copyright 2021 The Zen Tokyo Zoo Project Authors (https://github.com/googlefonts/zen-tokyo-zoo)"
FONT_VERSION "1.002; ttfautohint (v1.8.3)"
FONT_ASCENT 14
FONT_DESCENT 4
UNDERLINE_POSITION -3
UNDERLINE_THICKNESS 1
X_HEIGHT 7
CAP_HEIGHT 15
RAW_ASCENT 800
RAW_DESCENT 200
NORM_SPACE 5
RELATIVE_WEIGHT 40
RELATIVE_SETWIDTH 50
SUPERSCRIPT_X 0
SUPERSCRIPT_Y 6
SUPERSCRIPT_SIZE 10
SUBSCRIPT_X 0
SUBSCRIPT_Y 1
SUBSCRIPT_SIZE 10
AVG_LOWERCASE_WIDTH 74
AVG_UPPERCASE_WIDTH 136
ENDPROPERTIES
CHARS 338
STARTCHAR CR
ENCODING 13
SWIDTH 600 0
DWIDTH 11 0
BBX 1 1 0 0
BITMAP
00
ENDCHAR
STARTCHAR space
ENCODING 32
SWIDTH 280 0
DWIDTH 5 0
BBX 1 1 0 0
BITMAP
00
ENDCHAR
STARTCHAR exclam
ENCODING 33
SWIDTH 196 0
DWIDTH 4 0
BBX 2 8 1 0
BITMAP
60
60
60
60
60
50
50
60
ENDCHAR
STARTCHAR quotedbl
ENCODING 34
SWIDTH 302 0
DWIDTH 5 0
BBX 5 3 0 5
BITMAP
9680
9680
5140
ENDCHAR
STARTCHAR numbersign
ENCODING 35
SWIDTH 513 0
DWIDTH 9 0
BBX 8 8 1 0
BITMAP
1554
55A9
65A9
1450
A9A4
A9A4
0560
5950
ENDCHAR
STARTCHAR dollar
ENCODING 36
SWIDTH 379 0
DWIDTH 7 0
BBX 7 10 0 -1
BITMAP
0100
0640
2260
5550
5A40
1960
0194
5654
2660
0200
ENDCHAR
STARTCHAR percent
ENCODING 37
SWIDTH 493 0
DWIDTH 9 0
BBX 9 8 0 0
BITMAP
291500
562800
5A5400
296000
025900
056940
061940
251A00
ENDCHAR
STARTCHAR ampersand
ENCODING 38
SWIDTH 487 0
DWIDTH 9 0
BBX 7 8 1 0
BITMAP
1A80
2650
2950
2540
5A14
9588
9650
6994
ENDCHAR
STARTCHAR quotesingle
ENCODING 39
SWIDTH 146 0
DWIDTH 3 0
BBX 3 3 0 5
BITMAP
94
94
50
ENDCHAR
STARTCHAR parenleft
ENCODING 40
SWIDTH 210 0
DWIDTH 4 0
BBX 4 9 0 0
BITMAP
25
28
54
54
54
54
54
28
25
ENDCHAR
STARTCHAR parenright
ENCODING 41
SWIDTH 210 0
DWIDTH 4 0
BBX 4 9 0 0
BITMAP
54
28
28
24
25
24
28
28
54
ENDCHAR
STARTCHAR asterisk
ENCODING 42
SWIDTH 358 0
DWIDTH 6 0
BBX 5 5 1 3
BITMAP
1400
5100
4140
5500
1100
ENDCHAR
STARTCHAR plus
ENCODING 43
SWIDTH 394 0
DWIDTH 7 0
BBX 6 6 1 1
BITMAP
1500
1500
9590
9590
1500
1500
ENDCHAR
STARTCHAR comma
ENCODING 44
SWIDTH 216 0
DWIDTH 4 0
BBX 2 3 1 -1
BITMAP
50
A0
60
ENDCHAR
STARTCHAR hyphen
ENCODING 45
SWIDTH 326 0
DWIDTH 6 0
BBX 4 2 1 3
BITMAP
AA
AA
ENDCHAR
STARTCHAR period
ENCODING 46
SWIDTH 176 0
DWIDTH 3 0
BBX 3 2 0 0
BITMAP
14
54
ENDCHAR
STARTCHAR slash
ENCODING 47
SWIDTH 298 0
DWIDTH 5 0
BBX 5 8 0 0
BITMAP
0580
0540
0A00
0600
1500
2400
2800
5800
ENDCHAR
STARTCHAR zero
ENCODING 48
SWIDTH 306 0
DWIDTH 6 0
BBX 5 8 0 0
BITMAP
2A40
5980
5680
5680
5680
5680
5980
2A40
ENDCHAR
STARTCHAR one
ENCODING 49
SWIDTH 306 0
DWIDTH 6 0
BBX 4 8 1 0
BITMAP
96
96
06
06
06
06
06
06
ENDCHAR
STARTCHAR two
ENCODING 50
SWIDTH 299 0
DWIDTH 5 0
BBX 5 8 0 0
BITMAP
2A40
5980
0580
0940
2600
1400
6A40
6A40
ENDCHAR
STARTCHAR three
ENCODING 51
SWIDTH 324 0
DWIDTH 6 0
BBX 6 8 0 0
BITMAP
1A40
5940
0150
0240
0180
4650
5940
1A40
ENDCHAR
STARTCHAR four
ENCODING 52
SWIDTH 339 0
DWIDTH 6 0
BBX 6 8 0 0
BITMAP
0580
0900
1600
2500
0160
6960
6960
0160
ENDCHAR
STARTCHAR five
ENCODING 53
SWIDTH 363 0
DWIDTH 7 0
BBX 5 8 1 0
BITMAP
6A40
6A40
5000
9500
9140
0580
9940
2A00
ENDCHAR
STARTCHAR six
ENCODING 54
SWIDTH 306 0
DWIDTH 6 0
BBX 5 8 0 0
BITMAP
2A40
5980
5400
5600
5580
5680
5980
2A40
ENDCHAR
STARTCHAR seven
ENCODING 55
SWIDTH 298 0
DWIDTH 5 0
BBX 5 8 0 0
BITMAP
6A40
6A40
0000
0540
0900
0A00
0600
1500
ENDCHAR
STARTCHAR eight
ENCODING 56
SWIDTH 306 0
DWIDTH 6 0
BBX 5 8 0 0
BITMAP
2A40
5980
5580
2540
1940
5680
5980
2A40
ENDCHAR
STARTCHAR nine
ENCODING 57
SWIDTH 306 0
DWIDTH 6 0
BBX 5 8 0 0
BITMAP
2A40
5980
5680
5680
1680
0280
5980
2A40
ENDCHAR
STARTCHAR colon
ENCODING 58
SWIDTH 176 0
DWIDTH 3 0
BBX 3 5 0 0
BITMAP
14
54
00
14
54
ENDCHAR
STARTCHAR semicolon
ENCODING 59
SWIDTH 217 0
DWIDTH 4 0
BBX 3 6 1 -1
BITMAP
50
94
00
50
A0
60
ENDCHAR
STARTCHAR less
ENCODING 60
SWIDTH 450 0
DWIDTH 8 0
BBX 7 7 1 0
BITMAP
0060
0664
1580
9900
1990
0254
0064
ENDCHAR
STARTCHAR equal
ENCODING 61
SWIDTH 344 0
DWIDTH 6 0
BBX 5 5 1 1
BITMAP
AA40
AA40
0000
AA40
AA40
ENDCHAR
STARTCHAR greater
ENCODING 62
SWIDTH 450 0
DWIDTH 8 0
BBX 7 8 0 0
BITMAP
1000
1800
2640
0664
0194
1940
5900
6000
ENDCHAR
STARTCHAR question
ENCODING 63
SWIDTH 346 0
DWIDTH 6 0
BBX 5 8 1 0
BITMAP
6900
9900
0940
1A00
2500
2800
1400
2800
ENDCHAR
STARTCHAR at
ENCODING 64
SWIDTH 490 0
DWIDTH 9 0
BBX 9 8 0 0
BITMAP
07A400
280900
615600
552640
55A600
196500
155000
056400
ENDCHAR
STARTCHAR A
ENCODING 65
SWIDTH 798 0
DWIDTH 14 0
BBX 14 16 0 0
BITMAP
00258000
00295000
005A2000
00966000
00A59400
01695800
02596800
0294A500
05A09600
05605A00
0A5A6940
169AA580
15801680
296A9A50
1A000950
560005A0
ENDCHAR
STARTCHAR B
ENCODING 66
SWIDTH 784 0
DWIDTH 14 0
BBX 13 16 1 0
BITMAP
69AA9000
69AA9800
68002500
69AA8A00
68001A00
68001A00
69AAA200
69AA9500
68001A00
69AA9540
68001540
68001540
68002540
69AA9A00
69AA9500
69AAA400
ENDCHAR
STARTCHAR C
ENCODING 67
SWIDTH 776 0
DWIDTH 14 0
BBX 13 16 0 0
BITMAP
002AA900
015AA580
059AA640
16600900
25800000
1A000000
56000000
55000000
55000000
56000000
1A000000
25800000
16600900
059AA640
015AA580
002AA900
ENDCHAR
STARTCHAR D
ENCODING 68
SWIDTH 806 0
DWIDTH 15 0
BBX 13 16 1 0
BITMAP
69AA4000
69A96000
68019800
69A91600
68018940
68002580
68001680
68000680
68000A80
68000680
68001580
68002940
6801A600
69AA9800
69A96000
69AA4000
ENDCHAR
STARTCHAR E
ENCODING 69
SWIDTH 677 0
DWIDTH 12 0
BBX 11 16 1 0
BITMAP
69AAA4
69AAA4
680000
69AAA4
680000
680000
69AA90
680000
69AA90
69AA90
680000
680000
680000
69AAA4
69AAA4
69AAA4
ENDCHAR
STARTCHAR F
ENCODING 70
SWIDTH 677 0
DWIDTH 12 0
BBX 11 16 1 0
BITMAP
69AAA4
69AAA4
680000
69AAA4
680000
680000
69AA90
680000
69AA90
69AA90
680000
680000
680000
680000
680000
680000
ENDCHAR
STARTCHAR G
ENCODING 71
SWIDTH 872 0
DWIDTH 16 0
BBX 15 16 0 0
BITMAP
002AA900
015AA580
059AA660
16600994
25800140
1A000000
56000000
5500AAA8
5500AAA8
56000000
1A00AAA8
25800154
16600594
059AA660
015AA580
002AA900
ENDCHAR
STARTCHAR H
ENCODING 72
SWIDTH 781 0
DWIDTH 14 0
BBX 12 16 1 0
BITMAP
680029
680029
680029
680029
680029
680029
69AA69
680029
69AA69
69AA69
680029
680029
680029
680029
680029
680029
ENDCHAR
STARTCHAR I
ENCODING 73
SWIDTH 262 0
DWIDTH 5 0
BBX 3 16 1 0
BITMAP
68
68
68
68
68
68
68
68
68
68
68
68
68
68
68
68
ENDCHAR
STARTCHAR J
ENCODING 74
SWIDTH 674 0
DWIDTH 12 0
BBX 12 16 0 0
BITMAP
0000A5
0000A5
0000A5
0000A5
0000A5
0000A5
0000A5
0000A5
0000A5
0000A5
9500A5
5500A4
5A4158
26A994
09A950
01AA40
ENDCHAR
STARTCHAR K
ENCODING 75
SWIDTH 739 0
DWIDTH 13 0
BBX 12 16 1 0
BITMAP
6800A6
680258
680594
680960
682580
680940
685600
69A400
6A5800
696500
685940
682580
680A60
680594
680268
680096
ENDCHAR
STARTCHAR L
ENCODING 76
SWIDTH 604 0
DWIDTH 11 0
BBX 10 16 1 0
BITMAP
680000
680000
680000
680000
680000
680000
680000
680000
680000
680000
680000
680000
680000
69AA90
69AA90
69AA90
ENDCHAR
STARTCHAR M
ENCODING 77
SWIDTH 909 0
DWIDTH 16 0
BBX 15 16 1 0
BITMAP
68000154
69000554
69400954
68802554
69605954
68949554
69695954
68965554
68596154
68224154
68150154
68040154
68000154
68000154
68000154
68000154
ENDCHAR
STARTCHAR N
ENCODING 78
SWIDTH 796 0
DWIDTH 14 0
BBX 13 16 1 0
BITMAP
68001540
69001540
69401540
69801540
69601540
68941540
69581540
68961540
68595540
68259540
680A5540
68059540
68025540
68015540
68005540
68001540
ENDCHAR
STARTCHAR O
ENCODING 79
SWIDTH 894 0
DWIDTH 16 0
BBX 16 16 0 0
BITMAP
002AA800
015AA540
059AA660
16600994
25800158
1A0000A4
56000095
55000056
55000056
56000095
1A0000A5
25800158
16600594
059AA660
015AA540
002AA800
ENDCHAR
STARTCHAR P
ENCODING 80
SWIDTH 743 0
DWIDTH 13 0
BBX 12 16 1 0
BITMAP
69AA90
69AA98
680025
69AA8A
68001A
68001A
69AAA2
69AA95
680018
69AA90
680000
680000
680000
680000
680000
680000
ENDCHAR
STARTCHAR Q
ENCODING 81
SWIDTH 911 0
DWIDTH 16 0
BBX 16 16 0 0
BITMAP
002AA800
015AA540
059AA650
16600994
25800158
1A0000A4
56000095
55000055
55000056
56000255
1A000995
25801664
16600994
059AA265
015AA598
002AA820
ENDCHAR
STARTCHAR R
ENCODING 82
SWIDTH 745 0
DWIDTH 13 0
BBX 12 16 1 0
BITMAP
69AA90
69AA98
680025
69AA8A
68001A
68001A
69AAA2
69AA95
680018
69AA90
680550
680560
680294
680258
680064
680096
ENDCHAR
STARTCHAR S
ENCODING 83
SWIDTH 660 0
DWIDTH 12 0
BBX 12 16 0 0
BITMAP
01AA40
09AA60
26A998
5A0164
560040
599000
251900
19A590
064654
006968
0001A5
000095
5601A4
25AA98
15AA60
02AA40
ENDCHAR
STARTCHAR T
ENCODING 84
SWIDTH 641 0
DWIDTH 12 0
BBX 12 16 0 0
BITMAP
6AAAA9
6AAAA9
000000
6AAAA9
005400
009500
009500
009500
009500
009500
009500
009500
009500
009500
009500
009500
ENDCHAR
STARTCHAR U
ENCODING 85
SWIDTH 702 0
DWIDTH 13 0
BBX 11 16 1 0
BITMAP
680168
680168
680168
680168
680168
680168
680168
680168
680168
680168
680168
A80158
960294
59AA60
15A980
06AA00
ENDCHAR
STARTCHAR V
ENCODING 86
SWIDTH 758 0
DWIDTH 14 0
BBX 13 16 0 0
BITMAP
56000A40
5A001680
29402540
25802900
16805A00
0A409500
0950A400
05615800
02A25400
02559000
01586000
00685000
00A54000
00960000
005A0000
00294000
ENDCHAR
STARTCHAR W
ENCODING 87
SWIDTH 972 0
DWIDTH 18 0
BBX 17 16 0 0
BITMAP
9501580A80
5602941680
1A02A01540
2905A02540
2545582A00
158A545A00
068A955500
0A46965500
09554A2800
05655A1800
05A2254400
02A2255400
0295159000
02540A8000
01580A5000
0068095000
ENDCHAR
STARTCHAR X
ENCODING 88
SWIDTH 712 0
DWIDTH 13 0
BBX 13 16 0 0
BITMAP
29405600
2580A500
0A515800
05A19400
02956000
01695000
00A54000
005A0000
00258000
01568000
02596000
0595A000
09625800
16816400
25809600
5A005940
ENDCHAR
STARTCHAR Y
ENCODING 89
SWIDTH 769 0
DWIDTH 14 0
BBX 14 16 0 0
BITMAP
5A000650
25802580
16505940
09609600
01956800
02589400
00966000
005A5000
00144000
00154000
00254000
00254000
00254000
00254000
00254000
00254000
ENDCHAR
STARTCHAR Z
ENCODING 90
SWIDTH 708 0
DWIDTH 13 0
BBX 13 16 0 0
BITMAP
1AAA5940
1AA99600
00016500
1AA65800
0005A000
000A5000
00158000
00294000
00960000
01650000
02580000
05900000
09600000
168AA800
295AA800
966AA800
ENDCHAR
STARTCHAR bracketleft
ENCODING 91
SWIDTH 320 0
DWIDTH 6 0
BBX 4 9 1 -1
BITMAP
55
65
60
60
60
60
60
65
55
ENDCHAR
STARTCHAR backslash
ENCODING 92
SWIDTH 298 0
DWIDTH 5 0
BBX 5 8 0 0
BITMAP
5800
2800
2400
1500
0600
0A00
0540
0580
ENDCHAR
STARTCHAR bracketright
ENCODING 93
SWIDTH 320 0
DWIDTH 6 0
BBX 4 9 1 -1
BITMAP
95
9A
0A
0A
0A
0A
0A
9A
95
ENDCHAR
STARTCHAR asciicircum
ENCODING 94
SWIDTH 309 0
DWIDTH 6 0
BBX 4 3 1 4
BITMAP
20
58
95
ENDCHAR
STARTCHAR underscore
ENCODING 95
SWIDTH 472 0
DWIDTH 9 0
BBX 7 2 1 0
BITMAP
AAA4
AAA4
ENDCHAR
STARTCHAR grave
ENCODING 96
SWIDTH 195 0
DWIDTH 4 0
BBX 2 2 1 9
BITMAP
80
50
ENDCHAR
STARTCHAR a
ENCODING 97
SWIDTH 414 0
DWIDTH 7 0
BBX 7 8 0 0
BITMAP
0580
0980
0A50
16A0
2590
2A94
5A98
9024
ENDCHAR
STARTCHAR b
ENCODING 98
SWIDTH 423 0
DWIDTH 8 0
BBX 7 8 0 0
BITMAP
5AA0
5A98
5428
5AA8
5A98
5428
5A98
5AA4
ENDCHAR
STARTCHAR c
ENCODING 99
SWIDTH 446 0
DWIDTH 8 0
BBX 8 8 0 0
BITMAP
06A4
26A5
1804
5400
5400
1804
2695
06A4
ENDCHAR
STARTCHAR d
ENCODING 100
SWIDTH 450 0
DWIDTH 8 0
BBX 8 8 0 0
BITMAP
5AA0
5A98
5425
5416
5416
5425
5A98
5AA0
ENDCHAR
STARTCHAR e
ENCODING 101
SWIDTH 363 0
DWIDTH 7 0
BBX 6 8 0 0
BITMAP
5AA0
5AA0
5400
5A90
5A90
5400
5AA0
5AA0
ENDCHAR
STARTCHAR f
ENCODING 102
SWIDTH 365 0
DWIDTH 7 0
BBX 6 8 0 0
BITMAP
5AA0
5AA0
5400
5A90
5A90
5400
5400
5400
ENDCHAR
STARTCHAR g
ENCODING 103
SWIDTH 483 0
DWIDTH 9 0
BBX 8 8 0 0
BITMAP
06A4
26A5
1804
542A
542A
1816
2695
06A4
ENDCHAR
STARTCHAR h
ENCODING 104
SWIDTH 428 0
DWIDTH 8 0
BBX 7 8 0 0
BITMAP
5428
5428
5428
5AA8
5AA8
5428
5428
5428
ENDCHAR
STARTCHAR i
ENCODING 105
SWIDTH 176 0
DWIDTH 3 0
BBX 3 8 0 0
BITMAP
54
54
54
54
54
54
54
54
ENDCHAR
STARTCHAR j
ENCODING 106
SWIDTH 390 0
DWIDTH 7 0
BBX 7 8 0 0
BITMAP
0054
0054
0054
0054
0054
5494
2660
1A90
ENDCHAR
STARTCHAR k
ENCODING 107
SWIDTH 381 0
DWIDTH 7 0
BBX 7 8 0 0
BITMAP
5494
5560
5640
5A80
5A40
5980
5660
5494
ENDCHAR
STARTCHAR l
ENCODING 108
SWIDTH 330 0
DWIDTH 6 0
BBX 6 8 0 0
BITMAP
5400
5400
5400
5400
5400
5400
5A90
5A90
ENDCHAR
STARTCHAR m
ENCODING 109
SWIDTH 501 0
DWIDTH 9 0
BBX 9 8 0 0
BITMAP
580940
591940
595940
599940
565540
544540
540540
540540
ENDCHAR
STARTCHAR n
ENCODING 110
SWIDTH 444 0
DWIDTH 8 0
BBX 8 8 0 0
BITMAP
5815
5915
5A15
5995
5665
54A5
5465
5425
ENDCHAR
STARTCHAR o
ENCODING 111
SWIDTH 494 0
DWIDTH 9 0
BBX 9 8 0 0
BITMAP
06A400
26A500
180A00
540540
540540
180A00
26A500
06A400
ENDCHAR
STARTCHAR p
ENCODING 112
SWIDTH 412 0
DWIDTH 7 0
BBX 7 8 0 0
BITMAP
5AA0
5A98
5428
5A98
5AA0
5400
5400
5400
ENDCHAR
STARTCHAR q
ENCODING 113
SWIDTH 494 0
DWIDTH 9 0
BBX 9 8 0 0
BITMAP
06A400
26A500
180900
540540
540940
181A00
26A600
06A900
ENDCHAR
STARTCHAR r
ENCODING 114
SWIDTH 412 0
DWIDTH 7 0
BBX 7 8 0 0
BITMAP
5AA0
5A98
5428
5A98
5AA0
54A0
5494
5458
ENDCHAR
STARTCHAR s
ENCODING 115
SWIDTH 379 0
DWIDTH 7 0
BBX 7 8 0 0
BITMAP
1A90
5A60
5800
2680
0A60
0094
5A60
1A90
ENDCHAR
STARTCHAR t
ENCODING 116
SWIDTH 349 0
DWIDTH 6 0
BBX 6 8 0 0
BITMAP
6AA0
6AA0
0A00
0A00
0A00
0A00
0A00
0A00
ENDCHAR
STARTCHAR u
ENCODING 117
SWIDTH 400 0
DWIDTH 7 0
BBX 7 8 0 0
BITMAP
5454
5454
5454
5454
5454
5854
2660
0A90
ENDCHAR
STARTCHAR v
ENCODING 118
SWIDTH 394 0
DWIDTH 7 0
BBX 7 8 0 0
BITMAP
9418
5454
1890
24A0
1660
0650
0A80
0980
ENDCHAR
STARTCHAR w
ENCODING 119
SWIDTH 521 0
DWIDTH 9 0
BBX 9 8 0 0
BITMAP
906240
556280
5A6580
2A9940
299D00
159A00
166A00
0A2500
ENDCHAR
STARTCHAR x
ENCODING 120
SWIDTH 369 0
DWIDTH 7 0
BBX 7 8 0 0
BITMAP
58A0
2660
1680
0980
0980
1650
2960
9494
ENDCHAR
STARTCHAR y
ENCODING 121
SWIDTH 422 0
DWIDTH 8 0
BBX 7 8 0 0
BITMAP
5828
2594
1660
0990
0140
0180
0180
0180
ENDCHAR
STARTCHAR z
ENCODING 122
SWIDTH 409 0
DWIDTH 7 0
BBX 7 8 0 0
BITMAP
2AA4
2AA4
0160
0250
0940
2600
6AA4
2AA4
ENDCHAR
STARTCHAR braceleft
ENCODING 123
SWIDTH 443 0
DWIDTH 8 0
BBX 6 9 1 -1
BITMAP
0560
0A60
0A00
9A00
9A00
0A00
0A00
0A60
0560
ENDCHAR
STARTCHAR bar
ENCODING 124
SWIDTH 196 0
DWIDTH 4 0
BBX 2 9 1 0
BITMAP
60
60
60
60
60
60
60
60
60
ENDCHAR
STARTCHAR braceright
ENCODING 125
SWIDTH 506 0
DWIDTH 9 0
BBX 6 9 2 -1
BITMAP
9500
9A00
0A00
0A60
0A60
0A00
0A00
9A00
9500
ENDCHAR
STARTCHAR asciitilde
ENCODING 126
SWIDTH 450 0
DWIDTH 8 0
BBX 7 3 1 2
BITMAP
A404
A914
02A0
ENDCHAR
STARTCHAR uni00A0
ENCODING 160
SWIDTH 280 0
DWIDTH 5 0
BBX 1 1 0 0
BITMAP
00
ENDCHAR
STARTCHAR exclamdown
ENCODING 161
SWIDTH 196 0
DWIDTH 4 0
BBX 2 8 1 -2
BITMAP
50
60
50
60
60
60
60
60
ENDCHAR
STARTCHAR cent
ENCODING 162
SWIDTH 305 0
DWIDTH 5 0
BBX 5 9 0 -1
BITMAP
0A00
1A40
6A40
A000
A000
A000
6A40
1A40
0A00
ENDCHAR
STARTCHAR sterling
ENCODING 163
SWIDTH 408 0
DWIDTH 7 0
BBX 7 8 0 0
BITMAP
2A40
9A50
0000
AA80
AA80
1400
AAA8
AAA8
ENDCHAR
STARTCHAR currency
ENCODING 164
SWIDTH 401 0
DWIDTH 7 0
BBX 7 6 0 1
BITMAP
1410
5654
0650
0650
1654
1410
ENDCHAR
STARTCHAR yen
ENCODING 165
SWIDTH 423 0
DWIDTH 8 0
BBX 7 8 0 0
BITMAP
5828
2594
1660
0990
0140
2594
2594
0180
ENDCHAR
STARTCHAR brokenbar
ENCODING 166
SWIDTH 196 0
DWIDTH 4 0
BBX 2 9 1 0
BITMAP
50
60
60
60
00
50
60
60
60
ENDCHAR
STARTCHAR section
ENCODING 167
SWIDTH 322 0
DWIDTH 6 0
BBX 6 8 0 0
BITMAP
2F80
5900
1180
5550
5690
2480
0680
2F80
ENDCHAR
STARTCHAR dieresis
ENCODING 168
SWIDTH 287 0
DWIDTH 5 0
BBX 3 1 1 10
BITMAP
C8
ENDCHAR
STARTCHAR copyright
ENCODING 169
SWIDTH 493 0
DWIDTH 9 0
BBX 9 9 0 0
BITMAP
06A000
140900
200200
519140
450140
550140
219200
140900
06A000
ENDCHAR
STARTCHAR ordfeminine
ENCODING 170
SWIDTH 331 0
DWIDTH 6 0
BBX 4 3 1 4
BITMAP
28
59
AA
ENDCHAR
STARTCHAR guillemotleft
ENCODING 171
SWIDTH 298 0
DWIDTH 5 0
BBX 4 4 1 2
BITMAP
11
88
55
95
ENDCHAR
STARTCHAR logicalnot
ENCODING 172
SWIDTH 420 0
DWIDTH 8 0
BBX 6 4 1 1
BITMAP
AA90
AA90
0050
00A0
ENDCHAR
STARTCHAR uni00AD
ENCODING 173
SWIDTH 326 0
DWIDTH 6 0
BBX 4 2 1 3
BITMAP
AA
AA
ENDCHAR
STARTCHAR registered
ENCODING 174
SWIDTH 493 0
DWIDTH 9 0
BBX 9 9 0 0
BITMAP
06A000
140900
200200
52A140
42A140
522140
222200
140900
06A000
ENDCHAR
STARTCHAR macron
ENCODING 175
SWIDTH 331 0
DWIDTH 6 0
BBX 4 1 1 9
BITMAP
AA
ENDCHAR
STARTCHAR degree
ENCODING 176
SWIDTH 298 0
DWIDTH 5 0
BBX 4 4 1 4
BITMAP
68
A5
A5
68
ENDCHAR
STARTCHAR plusminus
ENCODING 177
SWIDTH 418 0
DWIDTH 8 0
BBX 6 8 1 0
BITMAP
0600
0600
9650
9650
0600
0100
AA90
AA90
ENDCHAR
STARTCHAR uni00B2
ENCODING 178
SWIDTH 233 0
DWIDTH 4 0
BBX 2 3 1 4
BITMAP
A0
60
A0
ENDCHAR
STARTCHAR uni00B3
ENCODING 179
SWIDTH 228 0
DWIDTH 4 0
BBX 2 3 1 4
BITMAP
70
20
A0
ENDCHAR
STARTCHAR acute
ENCODING 180
SWIDTH 195 0
DWIDTH 4 0
BBX 2 2 1 9
BITMAP
50
80
ENDCHAR
STARTCHAR uni00B5
ENCODING 181
SWIDTH 506 0
DWIDTH 9 0
BBX 8 10 1 -2
BITMAP
6060
6060
6060
6060
6060
6160
6A58
6A59
6000
6000
ENDCHAR
STARTCHAR paragraph
ENCODING 182
SWIDTH 435 0
DWIDTH 8 0
BBX 7 8 0 0
BITMAP
2AA8
5AA8
9400
5958
1958
0158
0158
0158
ENDCHAR
STARTCHAR periodcentered
ENCODING 183
SWIDTH 176 0
DWIDTH 3 0
BBX 3 2 0 3
BITMAP
14
54
ENDCHAR
STARTCHAR cedilla
ENCODING 184
SWIDTH 261 0
DWIDTH 5 0
BBX 3 4 1 -4
BITMAP
10
A4
08
A4
ENDCHAR
STARTCHAR uni00B9
ENCODING 185
SWIDTH 218 0
DWIDTH 4 0
BBX 2 3 1 4
BITMAP
A0
20
20
ENDCHAR
STARTCHAR ordmasculine
ENCODING 186
SWIDTH 335 0
DWIDTH 6 0
BBX 4 4 1 4
BITMAP
14
AA
55
55
ENDCHAR
STARTCHAR guillemotright
ENCODING 187
SWIDTH 298 0
DWIDTH 5 0
BBX 4 4 1 2
BITMAP
44
55
55
88
ENDCHAR
STARTCHAR onequarter
ENCODING 188
SWIDTH 429 0
DWIDTH 8 0
BBX 8 8 0 0
BITMAP
5414
5460
1450
1580
0154
0620
0559
1819
ENDCHAR
STARTCHAR onehalf
ENCODING 189
SWIDTH 437 0
DWIDTH 8 0
BBX 8 8 0 0
BITMAP
6424
1450
1490
1554
0265
0518
0814
1414
ENDCHAR
STARTCHAR threequarters
ENCODING 190
SWIDTH 409 0
DWIDTH 7 0
BBX 7 8 0 0
BITMAP
1410
0450
5890
2540
0260
0550
0858
1458
ENDCHAR
STARTCHAR questiondown
ENCODING 191
SWIDTH 346 0
DWIDTH 6 0
BBX 5 8 1 -1
BITMAP
2800
0000
2800
5800
9400
6000
A940
6900
ENDCHAR
STARTCHAR Agrave
ENCODING 192
SWIDTH 798 0
DWIDTH 14 0
BBX 14 21 0 0
BITMAP
00940000
00180000
00250000
000A0000
00000000
00258000
00295000
005A2000
00966000
00A59400
01695800
02596800
0294A500
05A09600
05605A00
0A5A6940
169AA580
15801680
296A9A50
1A000950
560005A0
ENDCHAR
STARTCHAR Aacute
ENCODING 193
SWIDTH 798 0
DWIDTH 14 0
BBX 14 21 0 0
BITMAP
00009400
00016000
00025000
00058000
00000000
00258000
00295000
005A2000
00966000
00A59400
01695800
02596800
0294A500
05A09600
05605A00
0A5A6940
169AA580
15801680
296A9A50
1A000950
560005A0
ENDCHAR
STARTCHAR Acircumflex
ENCODING 194
SWIDTH 798 0
DWIDTH 14 0
BBX 14 21 0 0
BITMAP
00160000
00588000
00956000
01609400
00000000
00258000
00295000
005A2000
00966000
00A59400
01695800
02596800
0294A500
05A09600
05605A00
0A5A6940
169AA580
15801680
296A9A50
1A000950
560005A0
ENDCHAR
STARTCHAR Atilde
ENCODING 195
SWIDTH 798 0
DWIDTH 14 0
BBX 14 20 0 0
BITMAP
00640400
00861400
0041A000
00000000
00258000
00295000
005A2000
00966000
00A59400
01695800
02596800
0294A500
05A09600
05605A00
0A5A6940
169AA580
15801680
296A9A50
1A000950
560005A0
ENDCHAR
STARTCHAR Adieresis
ENCODING 196
SWIDTH 798 0
DWIDTH 14 0
BBX 14 21 0 0
BITMAP
01A06400
02048500
02048500
01A06400
00000000
00258000
00295000
005A2000
00966000
00A59400
01695800
02596800
0294A500
05A09600
05605A00
0A5A6940
169AA580
15801680
296A9A50
1A000950
560005A0
ENDCHAR
STARTCHAR Aring
ENCODING 197
SWIDTH 798 0
DWIDTH 14 0
BBX 14 21 0 0
BITMAP
000A4000
00208000
00208000
000A4000
00000000
00258000
00295000
005A2000
00966000
00A59400
01695800
02596800
0294A500
05A09600
05605A00
0A5A6940
169AA580
15801680
296A9A50
1A000950
560005A0
ENDCHAR
STARTCHAR AE
ENCODING 198
SWIDTH 1078 0
DWIDTH 19 0
BBX 19 16 0 0
BITMAP
000169AAA4
000169AAA4
0005A80000
0008A5AAA4
0015A40000
0025950000
005995AA90
0099550000
0168566A90
0258566A90
01901A0000
09666A0000
0A5A6A0000
1680296AA4
295A696AA4
5A00256AA4
ENDCHAR
STARTCHAR Ccedilla
ENCODING 199
SWIDTH 776 0
DWIDTH 14 0
BBX 13 21 0 -5
BITMAP
002AA900
015AA580
059AA640
16600900
25800000
1A000000
56000000
55000000
55000000
56000000
1A000000
25800000
16600900
059AA640
015AA580
002AA900
00050000
000A4000
00044000
00104000
001A4000
ENDCHAR
STARTCHAR Egrave
ENCODING 200
SWIDTH 677 0
DWIDTH 12 0
BBX 11 21 1 0
BITMAP
009400
005800
002500
001600
000000
69AAA4
69AAA4
680000
69AAA4
680000
680000
69AA90
680000
69AA90
69AA90
680000
680000
680000
69AAA4
69AAA4
69AAA4
ENDCHAR
STARTCHAR Eacute
ENCODING 201
SWIDTH 677 0
DWIDTH 12 0
BBX 11 21 1 0
BITMAP
001600
002500
005800
009000
000000
69AAA4
69AAA4
680000
69AAA4
680000
680000
69AA90
680000
69AA90
69AA90
680000
680000
680000
69AAA4
69AAA4
69AAA4
ENDCHAR
STARTCHAR Ecircumflex
ENCODING 202
SWIDTH 677 0
DWIDTH 12 0
BBX 11 21 1 0
BITMAP
009400
016200
029940
094250
000000
69AAA4
69AAA4
680000
69AAA4
680000
680000
69AA90
680000
69AA90
69AA90
680000
680000
680000
69AAA4
69AAA4
69AAA4
ENDCHAR
STARTCHAR Edieresis
ENCODING 203
SWIDTH 677 0
DWIDTH 12 0
BBX 11 21 1 0
BITMAP
064190
085510
085510
064190
000000
69AAA4
69AAA4
680000
69AAA4
680000
680000
69AA90
680000
69AA90
69AA90
680000
680000
680000
69AAA4
69AAA4
69AAA4
ENDCHAR
STARTCHAR Igrave
ENCODING 204
SWIDTH 262 0
DWIDTH 5 0
BBX 5 21 -1 0
BITMAP
9400
1800
2500
0A00
0000
0680
0680
0680
0680
0680
0680
0680
0680
0680
0680
0680
0680
0680
0680
0680
0680
ENDCHAR
STARTCHAR Iacute
ENCODING 205
SWIDTH 262 0
DWIDTH 5 0
BBX 5 21 1 0
BITMAP
0940
1600
2500
5800
0000
6800
6800
6800
6800
6800
6800
6800
6800
6800
6800
6800
6800
6800
6800
6800
6800
ENDCHAR
STARTCHAR Icircumflex
ENCODING 206
SWIDTH 262 0
DWIDTH 5 0
BBX 8 21 -2 0
BITMAP
0580
0954
2558
5826
0000
01A0
01A0
01A0
01A0
01A0
01A0
01A0
01A0
01A0
01A0
01A0
01A0
01A0
01A0
01A0
01A0
ENDCHAR
STARTCHAR Idieresis
ENCODING 207
SWIDTH 262 0
DWIDTH 5 0
BBX 9 21 -2 0
BITMAP
281A00
822040
822040
281A00
000000
01A000
01A000
01A000
01A000
01A000
01A000
01A000
01A000
01A000
01A000
01A000
01A000
01A000
01A000
01A000
01A000
ENDCHAR
STARTCHAR Eth
ENCODING 208
SWIDTH 856 0
DWIDTH 15 0
BBX 15 16 0 0
BITMAP
169AA400
169A9600
16801980
169A9260
16801890
05400254
6AA90128
00000168
6AA90068
6AA90168
05400158
16800294
16801A60
169AA980
169A9600
169AA400
ENDCHAR
STARTCHAR Ntilde
ENCODING 209
SWIDTH 796 0
DWIDTH 14 0
BBX 13 20 1 0
BITMAP
01901000
02185000
01068000
00000000
68001540
69001540
69401540
69801540
69601540
68941540
69581540
68961540
68595540
68259540
680A5540
68059540
68025540
68015540
68005540
68001540
ENDCHAR
STARTCHAR Ograve
ENCODING 210
SWIDTH 894 0
DWIDTH 16 0
BBX 16 21 0 0
BITMAP
00250000
00160000
00094000
00058000
00000000
002AA800
015AA540
059AA660
16600994
25800158
1A0000A4
56000095
55000056
55000056
56000095
1A0000A5
25800158
16600594
059AA660
015AA540
002AA800
ENDCHAR
STARTCHAR Oacute
ENCODING 211
SWIDTH 894 0
DWIDTH 16 0
BBX 16 21 0 0
BITMAP
00005800
00009400
00016000
00024000
00000000
002AA800
015AA540
059AA660
16600994
25800158
1A0000A4
56000095
55000056
55000056
56000095
1A0000A5
25800158
16600594
059AA660
015AA540
002AA800
ENDCHAR
STARTCHAR Ocircumflex
ENCODING 212
SWIDTH 894 0
DWIDTH 16 0
BBX 16 21 0 0
BITMAP
00098000
00162000
00259800
00942500
00000000
002AA800
015AA540
059AA660
16600994
25800158
1A0000A4
56000095
55000056
55000056
56000095
1A0000A5
25800158
16600594
059AA660
015AA540
002AA800
ENDCHAR
STARTCHAR Otilde
ENCODING 213
SWIDTH 894 0
DWIDTH 16 0
BBX 16 20 0 0
BITMAP
00190100
00114500
00406400
00000000
002AA800
015AA540
059AA660
16600994
25800158
1A0000A4
56000095
55000056
55000056
56000095
1A0000A5
25800158
16600594
059AA660
015AA540
002AA800
ENDCHAR
STARTCHAR Odieresis
ENCODING 214
SWIDTH 894 0
DWIDTH 16 0
BBX 16 21 0 0
BITMAP
00641900
00851100
00851100
00641900
00000000
002AA800
015AA540
059AA660
16600994
25800158
1A0000A4
56000095
55000056
55000056
56000095
1A0000A5
25800158
16600594
059AA660
015AA540
002AA800
ENDCHAR
STARTCHAR multiply
ENCODING 215
SWIDTH 370 0
DWIDTH 7 0
BBX 5 5 1 1
BITMAP
5200
8940
2600
9940
1200
ENDCHAR
STARTCHAR Oslash
ENCODING 216
SWIDTH 894 0
DWIDTH 16 0
BBX 16 16 0 0
BITMAP
002AA840
019AA254
059A9590
16601654
25802598
1A009965
56016655
55165856
56295455
56660095
19A800A4
26940158
16600594
0986A650
154AA540
001AA800
ENDCHAR
STARTCHAR Ugrave
ENCODING 217
SWIDTH 702 0
DWIDTH 13 0
BBX 11 21 1 0
BITMAP
094000
058000
025000
006000
000000
680168
680168
680168
680168
680168
680168
680168
680168
680168
680168
680168
A80158
960294
59AA60
15A980
06AA00
ENDCHAR
STARTCHAR Uacute
ENCODING 218
SWIDTH 702 0
DWIDTH 13 0
BBX 11 21 1 0
BITMAP
000940
001600
002500
005800
000000
680168
680168
680168
680168
680168
680168
680168
680168
680168
680168
680168
A80158
960294
59AA60
15A980
06AA00
ENDCHAR
STARTCHAR Ucircumflex
ENCODING 219
SWIDTH 702 0
DWIDTH 13 0
BBX 11 21 1 0
BITMAP
016000
029500
095600
160980
000000
680168
680168
680168
680168
680168
680168
680168
680168
680168
680168
680168
A80158
960294
59AA60
15A980
06AA00
ENDCHAR
STARTCHAR Udieresis
ENCODING 220
SWIDTH 702 0
DWIDTH 13 0
BBX 11 21 1 0
BITMAP
1A0680
208850
208850
1A0680
000000
680168
680168
680168
680168
680168
680168
680168
680168
680168
680168
680168
A80158
960294
59AA60
15A980
06AA00
ENDCHAR
STARTCHAR Yacute
ENCODING 221
SWIDTH 769 0
DWIDTH 14 0
BBX 14 21 0 0
BITMAP
00016000
00025000
00058000
00090000
00000000
5A000650
25802580
16505940
09609600
01956800
02589400
00966000
005A5000
00144000
00154000
00254000
00254000
00254000
00254000
00254000
00254000
ENDCHAR
STARTCHAR Thorn
ENCODING 222
SWIDTH 743 0
DWIDTH 13 0
BBX 12 16 1 0
BITMAP
680000
680000
680000
69AA90
69AAA8
680025
69AA8A
68001A
68001A
69AAA2
69AA95
680018
69AA90
680000
680000
680000
ENDCHAR
STARTCHAR germandbls
ENCODING 223
SWIDTH 424 0
DWIDTH 8 0
BBX 7 8 0 0
BITMAP
1AA0
1A94
5418
55A8
5598
5428
5598
55A4
ENDCHAR
STARTCHAR agrave
ENCODING 224
SWIDTH 414 0
DWIDTH 7 0
BBX 7 11 0 0
BITMAP
0500
0200
0000
0580
0980
0A50
16A0
2590
2A94
5A98
9024
ENDCHAR
STARTCHAR aacute
ENCODING 225
SWIDTH 414 0
DWIDTH 7 0
BBX 7 11 0 0
BITMAP
0040
0080
0000
0580
0980
0A50
16A0
2590
2A94
5A98
9024
ENDCHAR
STARTCHAR acircumflex
ENCODING 226
SWIDTH 414 0
DWIDTH 7 0
BBX 7 11 0 0
BITMAP
0200
0880
0000
0580
0980
0A50
16A0
2590
2A94
5A98
9024
ENDCHAR
STARTCHAR atilde
ENCODING 227
SWIDTH 414 0
DWIDTH 7 0
BBX 7 11 0 0
BITMAP
0910
0490
0000
0580
0980
0A50
16A0
2590
2A94
5A98
9024
ENDCHAR
STARTCHAR adieresis
ENCODING 228
SWIDTH 414 0
DWIDTH 7 0
BBX 7 11 0 0
BITMAP
0990
0000
0000
0580
0980
0A50
16A0
2590
2A94
5A98
9024
ENDCHAR
STARTCHAR aring
ENCODING 229
SWIDTH 414 0
DWIDTH 7 0
BBX 7 12 0 0
BITMAP
0240
0540
0240
0000
0580
0980
0A50
16A0
2590
2A94
5A98
9024
ENDCHAR
STARTCHAR ae
ENCODING 230
SWIDTH 593 0
DWIDTH 11 0
BBX 11 8 0 0
BITMAP
016AA4
026AA4
019400
099A90
065A90
255800
1AAAA4
942AA4
ENDCHAR
STARTCHAR ccedilla
ENCODING 231
SWIDTH 446 0
DWIDTH 8 0
BBX 8 12 0 -4
BITMAP
06A4
26A5
1804
5400
5400
1804
2695
06A4
0040
0290
0020
0290
ENDCHAR
STARTCHAR egrave
ENCODING 232
SWIDTH 363 0
DWIDTH 7 0
BBX 6 11 0 0
BITMAP
0500
0200
0000
5AA0
5AA0
5400
5A90
5A90
5400
5AA0
5AA0
ENDCHAR
STARTCHAR eacute
ENCODING 233
SWIDTH 363 0
DWIDTH 7 0
BBX 6 11 0 0
BITMAP
0080
0040
0000
5AA0
5AA0
5400
5A90
5A90
5400
5AA0
5AA0
ENDCHAR
STARTCHAR ecircumflex
ENCODING 234
SWIDTH 363 0
DWIDTH 7 0
BBX 6 11 0 0
BITMAP
0200
0880
0000
5AA0
5AA0
5400
5A90
5A90
5400
5AA0
5AA0
ENDCHAR
STARTCHAR edieresis
ENCODING 235
SWIDTH 363 0
DWIDTH 7 0
BBX 6 11 0 0
BITMAP
0890
0000
0000
5AA0
5AA0
5400
5A90
5A90
5400
5AA0
5AA0
ENDCHAR
STARTCHAR igrave
ENCODING 236
SWIDTH 176 0
DWIDTH 3 0
BBX 3 11 0 0
BITMAP
40
20
00
54
54
54
54
54
54
54
54
ENDCHAR
STARTCHAR iacute
ENCODING 237
SWIDTH 176 0
DWIDTH 3 0
BBX 3 11 0 0
BITMAP
08
14
00
54
54
54
54
54
54
54
54
ENDCHAR
STARTCHAR icircumflex
ENCODING 238
SWIDTH 176 0
DWIDTH 3 0
BBX 3 11 0 0
BITMAP
50
88
00
54
54
54
54
54
54
54
54
ENDCHAR
STARTCHAR idieresis
ENCODING 239
SWIDTH 176 0
DWIDTH 3 0
BBX 3 11 0 0
BITMAP
C8
00
00
54
54
54
54
54
54
54
54
ENDCHAR
STARTCHAR eth
ENCODING 240
SWIDTH 455 0
DWIDTH 8 0
BBX 8 8 0 0
BITMAP
5AA0
5A98
1425
0006
A906
5825
5A98
5AA0
ENDCHAR
STARTCHAR ntilde
ENCODING 241
SWIDTH 444 0
DWIDTH 8 0
BBX 8 11 0 0
BITMAP
0610
0490
0000
5815
5915
5A15
5995
5665
54A5
5465
5425
ENDCHAR
STARTCHAR ograve
ENCODING 242
SWIDTH 494 0
DWIDTH 9 0
BBX 9 11 0 0
BITMAP
020000
004000
000000
06A400
26A500
180A00
540540
540540
180A00
26A500
06A400
ENDCHAR
STARTCHAR oacute
ENCODING 243
SWIDTH 494 0
DWIDTH 9 0
BBX 9 11 0 0
BITMAP
002000
008000
000000
06A400
26A500
180A00
540540
540540
180A00
26A500
06A400
ENDCHAR
STARTCHAR ocircumflex
ENCODING 244
SWIDTH 494 0
DWIDTH 9 0
BBX 9 11 0 0
BITMAP
014000
022000
000000
06A400
26A500
180A00
540540
540540
180A00
26A500
06A400
ENDCHAR
STARTCHAR otilde
ENCODING 245
SWIDTH 494 0
DWIDTH 9 0
BBX 9 11 0 0
BITMAP
064400
046000
000000
06A400
26A500
180A00
540540
540540
180A00
26A500
06A400
ENDCHAR
STARTCHAR odieresis
ENCODING 246
SWIDTH 494 0
DWIDTH 9 0
BBX 9 11 0 0
BITMAP
023000
000000
000000
06A400
26A500
180A00
540540
540540
180A00
26A500
06A400
ENDCHAR
STARTCHAR divide
ENCODING 247
SWIDTH 418 0
DWIDTH 8 0
BBX 6 7 1 0
BITMAP
0500
0500
AA90
0000
AA90
0500
0900
ENDCHAR
STARTCHAR oslash
ENCODING 248
SWIDTH 494 0
DWIDTH 9 0
BBX 9 8 0 0
BITMAP
06A100
268800
182600
545540
554540
150A00
19A500
12A400
ENDCHAR
STARTCHAR ugrave
ENCODING 249
SWIDTH 400 0
DWIDTH 7 0
BBX 7 11 0 0
BITMAP
0400
0200
0000
5454
5454
5454
5454
5454
5854
2660
0A90
ENDCHAR
STARTCHAR uacute
ENCODING 250
SWIDTH 400 0
DWIDTH 7 0
BBX 7 11 0 0
BITMAP
0080
0140
0000
5454
5454
5454
5454
5454
5854
2660
0A90
ENDCHAR
STARTCHAR ucircumflex
ENCODING 251
SWIDTH 400 0
DWIDTH 7 0
BBX 7 11 0 0
BITMAP
0500
0880
0000
5454
5454
5454
5454
5454
5854
2660
0A90
ENDCHAR
STARTCHAR udieresis
ENCODING 252
SWIDTH 400 0
DWIDTH 7 0
BBX 7 11 0 0
BITMAP
0C80
0000
0000
5454
5454
5454
5454
5454
5854
2660
0A90
ENDCHAR
STARTCHAR yacute
ENCODING 253
SWIDTH 422 0
DWIDTH 8 0
BBX 7 11 0 0
BITMAP
0080
0140
0000
5828
2594
1660
0990
0140
0180
0180
0180
ENDCHAR
STARTCHAR thorn
ENCODING 254
SWIDTH 412 0
DWIDTH 7 0
BBX 7 8 0 0
BITMAP
5400
5AA0
5404
5A98
5A98
5404
5AA0
5400
ENDCHAR
STARTCHAR ydieresis
ENCODING 255
SWIDTH 422 0
DWIDTH 8 0
BBX 7 11 0 0
BITMAP
0990
0000
0000
5828
2594
1660
0990
0140
0180
0180
0180
ENDCHAR
STARTCHAR Edotaccent
ENCODING 278
SWIDTH 677 0
DWIDTH 12 0
BBX 11 18 1 0
BITMAP
001400
002800
69AAA4
69AAA4
680000
69AAA4
680000
680000
69AA90
680000
69AA90
69AA90
680000
680000
680000
69AAA4
69AAA4
69AAA4
ENDCHAR
STARTCHAR edotaccent
ENCODING 279
SWIDTH 363 0
DWIDTH 7 0
BBX 6 11 0 0
BITMAP
0240
0340
0000
5AA0
5AA0
5400
5A90
5A90
5400
5AA0
5AA0
ENDCHAR
STARTCHAR dotlessi
ENCODING 305
SWIDTH 176 0
DWIDTH 3 0
BBX 3 8 0 0
BITMAP
54
54
54
54
54
54
54
54
ENDCHAR
STARTCHAR OE
ENCODING 338
SWIDTH 1221 0
DWIDTH 22 0
BBX 22 16 0 0
BITMAP
002AA006AA90
019AA006AA90
059000000000
160AA006AA90
256000000000
194000000000
56000006AA40
560000000000
56000006AA40
56000006AA40
1A0000000000
254000000000
16A000000000
05AAA006AA90
019AA006AA90
002AA006AA90
ENDCHAR
STARTCHAR oe
ENCODING 339
SWIDTH 637 0
DWIDTH 11 0
BBX 11 8 0 0
BITMAP
0691A8
2691A8
580000
5401A4
5401A4
580000
2691A8
0691A8
ENDCHAR
STARTCHAR Wcircumflex
ENCODING 372
SWIDTH 972 0
DWIDTH 18 0
BBX 17 21 0 0
BITMAP
0002500000
0009980000
0016250000
0025160000
0000000000
9501580A80
5602941680
1A02A01540
2905A02540
2545582A00
158A545A00
068A955500
0A46965500
09554A2800
05655A1800
05A2254400
02A2255400
0295159000
02540A8000
01580A5000
0068095000
ENDCHAR
STARTCHAR wcircumflex
ENCODING 373
SWIDTH 521 0
DWIDTH 9 0
BBX 9 11 0 0
BITMAP
018000
022000
000000
906240
556280
5A6580
2A9940
299D00
159A00
166A00
0A2500
ENDCHAR
STARTCHAR Ycircumflex
ENCODING 374
SWIDTH 769 0
DWIDTH 14 0
BBX 14 21 0 0
BITMAP
00250000
00588000
00A25000
0250A400
00000000
5A000650
25802580
16505940
09609600
01956800
02589400
00966000
005A5000
00144000
00154000
00254000
00254000
00254000
00254000
00254000
00254000
ENDCHAR
STARTCHAR ycircumflex
ENCODING 375
SWIDTH 422 0
DWIDTH 8 0
BBX 7 11 0 0
BITMAP
0200
0880
0000
5828
2594
1660
0990
0140
0180
0180
0180
ENDCHAR
STARTCHAR Ydieresis
ENCODING 376
SWIDTH 769 0
DWIDTH 14 0
BBX 14 21 0 0
BITMAP
01906400
01114800
01114800
01906400
00000000
5A000650
25802580
16505940
09609600
01956800
02589400
00966000
005A5000
00144000
00154000
00254000
00254000
00254000
00254000
00254000
00254000
ENDCHAR
STARTCHAR circumflex
ENCODING 710
SWIDTH 298 0
DWIDTH 5 0
BBX 3 2 1 9
BITMAP
20
88
ENDCHAR
STARTCHAR dotaccent
ENCODING 729
SWIDTH 212 0
DWIDTH 4 0
BBX 2 2 1 9
BITMAP
90
A0
ENDCHAR
STARTCHAR ring
ENCODING 730
SWIDTH 212 0
DWIDTH 4 0
BBX 2 3 1 9
BITMAP
50
50
50
ENDCHAR
STARTCHAR tilde
ENCODING 732
SWIDTH 329 0
DWIDTH 6 0
BBX 4 2 1 9
BITMAP
A1
49
ENDCHAR
STARTCHAR gravecomb
ENCODING 768
SWIDTH 0 0
DWIDTH 0 0
BBX 2 2 1 9
BITMAP
80
50
ENDCHAR
STARTCHAR acutecomb
ENCODING 769
SWIDTH 0 0
DWIDTH 0 0
BBX 2 2 1 9
BITMAP
50
80
ENDCHAR
STARTCHAR uni0302
ENCODING 770
SWIDTH 0 0
DWIDTH 0 0
BBX 3 2 1 9
BITMAP
20
88
ENDCHAR
STARTCHAR tildecomb
ENCODING 771
SWIDTH 0 0
DWIDTH 0 0
BBX 4 2 1 9
BITMAP
A1
49
ENDCHAR
STARTCHAR uni0307
ENCODING 775
SWIDTH 0 0
DWIDTH 0 0
BBX 2 2 1 9
BITMAP
90
A0
ENDCHAR
STARTCHAR uni0308
ENCODING 776
SWIDTH 0 0
DWIDTH 0 0
BBX 3 1 1 10
BITMAP
C8
ENDCHAR
STARTCHAR uni030A
ENCODING 778
SWIDTH 0 0
DWIDTH 0 0
BBX 2 3 1 9
BITMAP
50
50
50
ENDCHAR
STARTCHAR uni0327
ENCODING 807
SWIDTH 0 0
DWIDTH 0 0
BBX 3 4 1 -4
BITMAP
10
A4
08
A4
ENDCHAR
STARTCHAR Wgrave
ENCODING 7808
SWIDTH 972 0
DWIDTH 18 0
BBX 17 21 0 0
BITMAP
0002800000
0002500000
0000A00000
0000580000
0000000000
9501580A80
5602941680
1A02A01540
2905A02540
2545582A00
158A545A00
068A955500
0A46965500
09554A2800
05655A1800
05A2254400
02A2255400
0295159000
02540A8000
01580A5000
0068095000
ENDCHAR
STARTCHAR wgrave
ENCODING 7809
SWIDTH 521 0
DWIDTH 9 0
BBX 9 11 0 0
BITMAP
008000
005000
000000
906240
556280
5A6580
2A9940
299D00
159A00
166A00
0A2500
ENDCHAR
STARTCHAR Wacute
ENCODING 7810
SWIDTH 972 0
DWIDTH 18 0
BBX 17 21 0 0
BITMAP
0000940000
0000A00000
0002500000
0005800000
0000000000
9501580A80
5602941680
1A02A01540
2905A02540
2545582A00
158A545A00
068A955500
0A46965500
09554A2800
05655A1800
05A2254400
02A2255400
0295159000
02540A8000
01580A5000
0068095000
ENDCHAR
STARTCHAR wacute
ENCODING 7811
SWIDTH 521 0
DWIDTH 9 0
BBX 9 11 0 0
BITMAP
005000
008000
000000
906240
556280
5A6580
2A9940
299D00
159A00
166A00
0A2500
ENDCHAR
STARTCHAR Wdieresis
ENCODING 7812
SWIDTH 972 0
DWIDTH 18 0
BBX 17 21 0 0
BITMAP
00290A4000
0052108000
0052108000
00290A4000
0000000000
9501580A80
5602941680
1A02A01540
2905A02540
2545582A00
158A545A00
068A955500
0A46965500
09554A2800
05655A1800
05A2254400
02A2255400
0295159000
02540A8000
01580A5000
0068095000
ENDCHAR
STARTCHAR wdieresis
ENCODING 7813
SWIDTH 521 0
DWIDTH 9 0
BBX 9 11 0 0
BITMAP
022400
000000
000000
906240
556280
5A6580
2A9940
299D00
159A00
166A00
0A2500
ENDCHAR
STARTCHAR uni1E9E
ENCODING 7838
SWIDTH 784 0
DWIDTH 14 0
BBX 13 16 1 0
BITMAP
69AAA800
69AAA800
68000000
69AAA800
68025400
6805A000
680A5000
68168800
68295600
68455940
68002540
68001540
68002540
686A9A00
686A9500
686AA400
ENDCHAR
STARTCHAR Ygrave
ENCODING 7922
SWIDTH 769 0
DWIDTH 14 0
BBX 14 21 0 0
BITMAP
00280000
00160000
00094000
00058000
00000000
5A000650
25802580
16505940
09609600
01956800
02589400
00966000
005A5000
00144000
00154000
00254000
00254000
00254000
00254000
00254000
00254000
ENDCHAR
STARTCHAR ygrave
ENCODING 7923
SWIDTH 422 0
DWIDTH 8 0
BBX 7 11 0 0
BITMAP
0200
0140
0000
5828
2594
1660
0990
0140
0180
0180
0180
ENDCHAR
STARTCHAR endash
ENCODING 8211
SWIDTH 507 0
DWIDTH 9 0
BBX 7 2 1 3
BITMAP
AAA8
AAA8
ENDCHAR
STARTCHAR emdash
ENCODING 8212
SWIDTH 552 0
DWIDTH 10 0
BBX 8 2 1 3
BITMAP
AAAA
AAAA
ENDCHAR
STARTCHAR quoteleft
ENCODING 8216
SWIDTH 146 0
DWIDTH 3 0
BBX 2 3 0 5
BITMAP
80
90
50
ENDCHAR
STARTCHAR quoteright
ENCODING 8217
SWIDTH 146 0
DWIDTH 3 0
BBX 3 3 0 5
BITMAP
94
54
10
ENDCHAR
STARTCHAR quotesinglbase
ENCODING 8218
SWIDTH 146 0
DWIDTH 3 0
BBX 3 2 0 -3
BITMAP
94
14
ENDCHAR
STARTCHAR quotedblleft
ENCODING 8220
SWIDTH 297 0
DWIDTH 5 0
BBX 5 3 0 5
BITMAP
8200
9240
5140
ENDCHAR
STARTCHAR quotedblright
ENCODING 8221
SWIDTH 297 0
DWIDTH 5 0
BBX 5 3 0 5
BITMAP
9680
5580
1040
ENDCHAR
STARTCHAR quotedblbase
ENCODING 8222
SWIDTH 297 0
DWIDTH 5 0
BBX 5 2 0 -3
BITMAP
9680
1480
ENDCHAR
STARTCHAR bullet
ENCODING 8226
SWIDTH 302 0
DWIDTH 5 0
BBX 4 4 1 2
BITMAP
68
85
85
68
ENDCHAR
STARTCHAR ellipsis
ENCODING 8230
SWIDTH 528 0
DWIDTH 10 0
BBX 9 2 0 0
BITMAP
145140
546280
ENDCHAR
STARTCHAR guilsinglleft
ENCODING 8249
SWIDTH 178 0
DWIDTH 3 0
BBX 2 4 1 2
BITMAP
10
80
50
90
ENDCHAR
STARTCHAR guilsinglright
ENCODING 8250
SWIDTH 178 0
DWIDTH 3 0
BBX 2 4 1 2
BITMAP
40
50
50
80
ENDCHAR
STARTCHAR fraction
ENCODING 8260
SWIDTH 362 0
DWIDTH 7 0
BBX 6 8 0 0
BITMAP
00A0
0150
0280
0540
0A00
1500
2800
5400
ENDCHAR
STARTCHAR uni2074
ENCODING 8308
SWIDTH 204 0
DWIDTH 4 0
BBX 3 3 0 4
BITMAP
14
78
18
ENDCHAR
STARTCHAR Euro
ENCODING 8364
SWIDTH 462 0
DWIDTH 8 0
BBX 8 8 0 0
BITMAP
06A8
15A5
1504
6A00
6A00
1104
15A5
06A8
ENDCHAR
STARTCHAR trademark
ENCODING 8482
SWIDTH 461 0
DWIDTH 8 0
BBX 8 4 0 4
BITMAP
BD46
019A
2152
2142
ENDCHAR
STARTCHAR minus
ENCODING 8722
SWIDTH 420 0
DWIDTH 8 0
BBX 7 2 0 3
BITMAP
7FF8
7FF8
ENDCHAR
STARTCHAR uni2215
ENCODING 8725
SWIDTH 278 0
DWIDTH 5 0
BBX 5 7 0 0
BITMAP
0580
0940
0A00
1600
2500
2800
5800
ENDCHAR
STARTCHAR .notdef
ENCODING -1
SWIDTH 500 0
DWIDTH 9 0
BBX 7 20 1 -4
BITMAP
FFFC
8008
8008
8008
8008
8008
8008
8008
8008
8008
8008
8008
8008
8008
8008
8008
8008
8008
8008
FFFC
ENDCHAR
STARTCHAR NULL
ENCODING -1
SWIDTH 600 0
DWIDTH 11 0
BBX 1 1 0 0
BITMAP
00
ENDCHAR
STARTCHAR acutecomb.case
ENCODING -1
SWIDTH 0 0
DWIDTH 0 0
BBX 4 4 1 17
BITMAP
16
25
58
94
ENDCHAR
STARTCHAR ampersand.case
ENCODING -1
SWIDTH 797 0
DWIDTH 14 0
BBX 14 16 0 0
BITMAP
006A4000
016A6000
01999400
05615400
05625400
05A59400
02996000
05654000
15960100
29698940
5A565650
56096580
56029900
29A56500
15A99600
06A92580
ENDCHAR
STARTCHAR asciicircum.case
ENCODING -1
SWIDTH 540 0
DWIDTH 10 0
BBX 9 8 0 8
BITMAP
008000
005000
025400
058800
095500
160A00
250580
580280
ENDCHAR
STARTCHAR asciitilde.case
ENCODING -1
SWIDTH 640 0
DWIDTH 12 0
BBX 10 5 1 6
BITMAP
6A4010
806A80
6A5060
AAAA50
401A80
ENDCHAR
STARTCHAR asterisk.case
ENCODING -1
SWIDTH 482 0
DWIDTH 9 0
BBX 7 7 1 9
BITMAP
0940
4940
6050
9024
1040
2560
1480
ENDCHAR
STARTCHAR at.case
ENCODING -1
SWIDTH 915 0
DWIDTH 16 0
BBX 15 16 1 0
BITMAP
006AA400
065A9600
19800980
25000160
581A9494
A09A9858
A1605828
62405828
62405828
A1605858
A09A5654
581A5020
25000680
19801400
065A9400
006AA400
ENDCHAR
STARTCHAR backslash.case
ENCODING -1
SWIDTH 504 0
DWIDTH 9 0
BBX 9 18 0 -1
BITMAP
950000
560000
2A0000
254000
158000
068000
0A5000
056000
01A000
029400
025800
016800
00A500
009500
005A00
002900
002540
001580
ENDCHAR
STARTCHAR bar.case
ENCODING -1
SWIDTH 262 0
DWIDTH 5 0
BBX 3 18 1 -1
BITMAP
68
68
68
68
68
68
68
68
68
68
68
68
68
68
68
68
68
68
ENDCHAR
STARTCHAR braceleft.case
ENCODING -1
SWIDTH 504 0
DWIDTH 9 0
BBX 7 18 1 -1
BITMAP
0558
0A98
0A80
0A98
0A80
0A80
0A80
0A80
9A80
9A80
9A80
0A80
0A80
0A80
0A80
0A98
0A98
0558
ENDCHAR
STARTCHAR braceright.case
ENCODING -1
SWIDTH 506 0
DWIDTH 9 0
BBX 7 18 1 -3
BITMAP
9540
9A80
9A80
0A80
0A80
0A80
0A80
0A98
0A98
0A98
0A80
0A80
0A80
0A80
9A80
0A80
9A80
9540
ENDCHAR
STARTCHAR bracketleft.case
ENCODING -1
SWIDTH 453 0
DWIDTH 8 0
BBX 6 18 1 -1
BITMAP
55A0
69A0
6800
69A0
6800
6800
6800
6800
6800
6800
6800
6800
6800
6800
6800
69A0
69A0
55A0
ENDCHAR
STARTCHAR bracketright.case
ENCODING -1
SWIDTH 453 0
DWIDTH 8 0
BBX 7 18 1 -3
BITMAP
A554
A654
A654
0254
0254
0254
0254
0254
0254
0254
0254
0254
0254
0254
A654
0254
A654
A554
ENDCHAR
STARTCHAR brokenbar.case
ENCODING -1
SWIDTH 262 0
DWIDTH 5 0
BBX 3 18 1 0
BITMAP
68
68
68
68
68
68
68
68
00
00
68
68
68
68
68
68
68
68
ENDCHAR
STARTCHAR bullet.case
ENCODING -1
SWIDTH 503 0
DWIDTH 9 0
BBX 7 8 1 4
BITMAP
0A90
6AA4
9468
6024
6024
9468
6AA4
0A90
ENDCHAR
STARTCHAR uni0327.case
ENCODING -1
SWIDTH 0 0
DWIDTH 0 0
BBX 4 5 1 -5
BITMAP
10
69
42
42
69
ENDCHAR
STARTCHAR cent.case
ENCODING -1
SWIDTH 577 0
DWIDTH 10 0
BBX 9 18 1 -1
BITMAP
00A000
00A000
005000
02A400
180600
21A940
89A500
A50400
A80000
A80000
A50400
89A500
21A940
180600
02A400
005000
00A000
00A000
ENDCHAR
STARTCHAR uni0302.case
ENCODING -1
SWIDTH 0 0
DWIDTH 0 0
BBX 8 4 1 17
BITMAP
0940
1620
2894
9425
ENDCHAR
STARTCHAR colon.case
ENCODING -1
SWIDTH 262 0
DWIDTH 5 0
BBX 3 10 1 0
BITMAP
68
68
68
00
00
00
00
68
68
68
ENDCHAR
STARTCHAR comma.case
ENCODING -1
SWIDTH 338 0
DWIDTH 6 0
BBX 4 5 1 -2
BITMAP
2A
5A
56
95
A8
ENDCHAR
STARTCHAR copyright.case
ENCODING -1
SWIDTH 895 0
DWIDTH 16 0
BBX 16 16 0 0
BITMAP
002AA800
019AA640
05900660
16000094
2506A458
18269425
54581015
54940016
54940016
54581015
18269425
2506A458
16000094
05900660
019AA540
002AA800
ENDCHAR
STARTCHAR currency.case
ENCODING -1
SWIDTH 676 0
DWIDTH 12 0
BBX 11 11 1 1
BITMAP
180140
650190
95A560
15A640
0A0900
060940
0A0900
16A650
95A464
580250
140080
ENDCHAR
STARTCHAR degree.case
ENCODING -1
SWIDTH 413 0
DWIDTH 7 0
BBX 7 7 0 9
BITMAP
0A90
2694
5858
5428
5858
26A4
0690
ENDCHAR
STARTCHAR uni0308.case
ENCODING -1
SWIDTH 0 0
DWIDTH 0 0
BBX 8 4 1 17
BITMAP
6819
8511
8511
6819
ENDCHAR
STARTCHAR divide.case
ENCODING -1
SWIDTH 618 0
DWIDTH 11 0
BBX 9 10 1 3
BITMAP
009000
016000
009000
000000
AAAA80
AAAA80
AAAA80
009000
016000
009000
ENDCHAR
STARTCHAR uni2215.case
ENCODING -1
SWIDTH 483 0
DWIDTH 9 0
BBX 8 16 0 0
BITMAP
001A
0056
0095
00A4
0158
0254
0290
05A0
0960
0A50
0680
1580
2540
1A00
5600
9500
ENDCHAR
STARTCHAR dollar.case
ENCODING -1
SWIDTH 660 0
DWIDTH 12 0
BBX 12 18 0 -1
BITMAP
002800
016900
092890
266994
196968
562890
5A5400
256900
19A590
029664
001A58
0024A5
062895
596964
262998
092860
016940
002800
ENDCHAR
STARTCHAR eight.case
ENCODING -1
SWIDTH 561 0
DWIDTH 10 0
BBX 10 16 0 0
BITMAP
06A900
15A540
29A680
5A0950
560550
560950
59A550
269640
195980
15A650
560950
550550
5A0950
29A680
15A540
06A900
ENDCHAR
STARTCHAR ellipsis.case
ENCODING -1
SWIDTH 766 0
DWIDTH 14 0
BBX 12 3 1 0
BITMAP
68952A
68952A
68952A
ENDCHAR
STARTCHAR emdash.case
ENCODING -1
SWIDTH 790 0
DWIDTH 14 0
BBX 13 3 1 6
BITMAP
AAAAAA40
AAAAAA40
AAAAAA40
ENDCHAR
STARTCHAR endash.case
ENCODING -1
SWIDTH 721 0
DWIDTH 13 0
BBX 11 3 1 6
BITMAP
AAAAA8
AAAAA8
AAAAA8
ENDCHAR
STARTCHAR equal.case
ENCODING -1
SWIDTH 618 0
DWIDTH 11 0
BBX 9 9 1 3
BITMAP
AAAA80
AAAA80
000000
AAAA80
000000
AAAA80
000000
AAAA80
AAAA80
ENDCHAR
STARTCHAR Euro.case
ENCODING -1
SWIDTH 767 0
DWIDTH 14 0
BBX 13 16 0 0
BITMAP
001AA900
0096A580
0266A640
05940900
0A500000
05400000
6AAA8000
00000000
6AAA8000
6AAA8000
05400000
09500000
05940900
0266A640
0096A580
001AA900
ENDCHAR
STARTCHAR exclam.case
ENCODING -1
SWIDTH 262 0
DWIDTH 5 0
BBX 3 16 1 0
BITMAP
68
68
68
68
68
68
68
68
68
68
68
54
00
68
68
68
ENDCHAR
STARTCHAR exclamdown.case
ENCODING -1
SWIDTH 262 0
DWIDTH 5 0
BBX 3 16 1 -5
BITMAP
68
68
68
00
54
68
68
68
68
68
68
68
68
68
68
68
ENDCHAR
STARTCHAR five.case
ENCODING -1
SWIDTH 558 0
DWIDTH 10 0
BBX 10 16 0 0
BITMAP
2AAA80
2AAA80
2AAA80
000000
2A0000
2A0000
2A6400
2A0240
2A6880
156650
000950
550550
5A0950
29A680
15A540
06A900
ENDCHAR
STARTCHAR four.case
ENCODING -1
SWIDTH 585 0
DWIDTH 11 0
BBX 10 16 0 0
BITMAP
005A00
009500
016800
025800
019000
096000
0A5000
158000
296540
152540
6A6560
6A6560
002540
6A6560
002540
002540
ENDCHAR
STARTCHAR uni2074.case
ENCODING -1
SWIDTH 312 0
DWIDTH 6 0
BBX 5 7 0 9
BITMAP
0A00
1600
2400
1540
6640
6640
0240
ENDCHAR
STARTCHAR fraction.case
ENCODING -1
SWIDTH 655 0
DWIDTH 12 0
BBX 10 16 1 0
BITMAP
000160
000240
000580
000900
001600
002400
005800
009000
016000
024000
058000
090000
160000
240000
580000
900000
ENDCHAR
STARTCHAR gravecomb.case
ENCODING -1
SWIDTH 0 0
DWIDTH 0 0
BBX 4 4 1 17
BITMAP
94
58
25
16
ENDCHAR
STARTCHAR greater.case
ENCODING -1
SWIDTH 677 0
DWIDTH 12 0
BBX 11 12 0 1
BITMAP
500000
190000
199000
265800
066640
009664
001954
025540
199900
196000
664000
240000
ENDCHAR
STARTCHAR guillemotleft.case
ENCODING -1
SWIDTH 666 0
DWIDTH 12 0
BBX 10 10 1 2
BITMAP
010020
090090
660560
550560
650640
990990
990550
260660
090090
010010
ENDCHAR
STARTCHAR guillemotright.case
ENCODING -1
SWIDTH 666 0
DWIDTH 12 0
BBX 10 10 1 2
BITMAP
800400
600600
990990
950550
190590
660660
550660
990980
600500
400400
ENDCHAR
STARTCHAR guilsinglleft.case
ENCODING -1
SWIDTH 338 0
DWIDTH 6 0
BBX 4 10 1 2
BITMAP
01
09
66
55
65
99
99
26
09
01
ENDCHAR
STARTCHAR guilsinglright.case
ENCODING -1
SWIDTH 338 0
DWIDTH 6 0
BBX 4 10 1 2
BITMAP
80
60
99
95
19
66
55
99
60
40
ENDCHAR
STARTCHAR hyphen.case
ENCODING -1
SWIDTH 445 0
DWIDTH 8 0
BBX 6 3 1 6
BITMAP
AAA0
AAA0
AAA0
ENDCHAR
STARTCHAR less.case
ENCODING -1
SWIDTH 677 0
DWIDTH 12 0
BBX 11 12 1 1
BITMAP
000060
000654
002594
019990
051600
599400
665800
066540
005664
000960
000194
000014
ENDCHAR
STARTCHAR logicalnot.case
ENCODING -1
SWIDTH 618 0
DWIDTH 11 0
BBX 10 7 1 2
BITMAP
AAAA80
AAAA80
AAAA80
000000
000A50
000A50
000A50
ENDCHAR
STARTCHAR uni00B5.case
ENCODING -1
SWIDTH 792 0
DWIDTH 14 0
BBX 13 20 1 -4
BITMAP
68016800
68016800
68016800
68016800
68016800
68016800
68016800
68016800
68016800
68016800
68016800
68015800
69029500
69AA6140
69A99540
69AA0640
68000000
68000000
68000000
68000000
ENDCHAR
STARTCHAR minus.case
ENCODING -1
SWIDTH 618 0
DWIDTH 11 0
BBX 9 3 1 6
BITMAP
AAAA80
AAAA80
AAAA80
ENDCHAR
STARTCHAR multiply.case
ENCODING -1
SWIDTH 580 0
DWIDTH 10 0
BBX 9 9 1 3
BITMAP
040500
291640
595980
256600
059800
166500
599A40
262600
040400
ENDCHAR
STARTCHAR nine.case
ENCODING -1
SWIDTH 558 0
DWIDTH 10 0
BBX 10 16 0 -2
BITMAP
06A900
15A540
29A680
560950
550550
560560
59A560
22A560
080560
01A560
000560
550550
560950
29A680
15A540
06A900
ENDCHAR
STARTCHAR numbersign.case
ENCODING -1
SWIDTH 776 0
DWIDTH 14 0
BBX 12 16 1 0
BITMAP
01A0A4
0560A8
056054
595AAA
095000
5A5AAA
5A9AAA
068150
0542A0
AAA5A5
AAA5A5
AAA565
000550
290950
2A0A40
1A0A80
ENDCHAR
STARTCHAR one.case
ENCODING -1
SWIDTH 378 0
DWIDTH 7 0
BBX 6 16 0 0
BITMAP
66A0
66A0
02A0
66A0
02A0
02A0
02A0
02A0
02A0
02A0
02A0
02A0
02A0
02A0
02A0
02A0
ENDCHAR
STARTCHAR onehalf.case
ENCODING -1
SWIDTH 735 0
DWIDTH 13 0
BBX 12 16 1 0
BITMAP
960094
960060
060250
060180
060940
060600
062500
001800
0095A4
006265
025025
018058
094154
0602A8
2502A8
180000
ENDCHAR
STARTCHAR onequarter.case
ENCODING -1
SWIDTH 722 0
DWIDTH 13 0
BBX 11 16 1 0
BITMAP
960094
960060
060250
060180
060940
060600
062500
001800
0094A0
006160
025240
018154
094664
060664
250024
180000
ENDCHAR
STARTCHAR uni00B9.case
ENCODING -1
SWIDTH 306 0
DWIDTH 6 0
BBX 4 7 1 9
BITMAP
96
96
06
06
06
06
06
ENDCHAR
STARTCHAR ordfeminine.case
ENCODING -1
SWIDTH 456 0
DWIDTH 8 0
BBX 6 7 1 9
BITMAP
0A00
1640
2680
2640
5A50
9AA0
9050
ENDCHAR
STARTCHAR ordmasculine.case
ENCODING -1
SWIDTH 489 0
DWIDTH 9 0
BBX 7 8 1 8
BITMAP
1A90
5664
9058
5018
9058
8648
6020
1A80
ENDCHAR
STARTCHAR paragraph.case
ENCODING -1
SWIDTH 893 0
DWIDTH 16 0
BBX 15 16 0 0
BITMAP
06AAAAA8
16AAAAA8
28000000
55AAAAA8
96005514
56005624
5AAA5624
22AA5624
18005624
02AA5624
00005624
00005624
00005624
00005624
00005624
00005624
ENDCHAR
STARTCHAR parenleft.case
ENCODING -1
SWIDTH 290 0
DWIDTH 5 0
BBX 6 18 0 -1
BITMAP
0950
0A80
1580
2540
2A00
1A00
5600
5600
5500
5500
5600
5600
1A00
2A00
2540
1580
0A80
0950
ENDCHAR
STARTCHAR parenright.case
ENCODING -1
SWIDTH 290 0
DWIDTH 5 0
BBX 6 18 -1 -3
BITMAP
5A00
2900
1580
0680
0A40
0950
0550
0560
0560
0560
0560
0550
0950
0A40
0680
1580
2940
5A00
ENDCHAR
STARTCHAR percent.case
ENCODING -1
SWIDTH 827 0
DWIDTH 15 0
BBX 15 16 0 0
BITMAP
0A900594
26540960
58181680
54282940
58589600
26A56500
06925800
00059400
00594000
00961A40
01686A60
0294A090
0960A054
0650A094
25805A60
59401A80
ENDCHAR
STARTCHAR period.case
ENCODING -1
SWIDTH 262 0
DWIDTH 5 0
BBX 3 3 1 0
BITMAP
68
68
68
ENDCHAR
STARTCHAR periodcentered.case
ENCODING -1
SWIDTH 262 0
DWIDTH 5 0
BBX 3 3 1 6
BITMAP
68
68
68
ENDCHAR
STARTCHAR plus.case
ENCODING -1
SWIDTH 616 0
DWIDTH 11 0
BBX 9 10 1 3
BITMAP
015000
02A000
02A000
02A000
A6A680
A6A680
A6A680
02A000
02A000
02A000
ENDCHAR
STARTCHAR plusminus.case
ENCODING -1
SWIDTH 618 0
DWIDTH 11 0
BBX 9 14 1 0
BITMAP
015000
02A000
02A000
02A000
A6A680
A6A680
A6A680
02A000
02A000
02A000
000000
AAAA80
AAAA80
AAAA80
ENDCHAR
STARTCHAR question.case
ENCODING -1
SWIDTH 598 0
DWIDTH 11 0
BBX 9 16 1 0
BITMAP
0AA400
26A600
9AA940
A41580
540680
001680
005580
015600
025900
029400
01A000
015000
000000
01A000
01A000
01A000
ENDCHAR
STARTCHAR questiondown.case
ENCODING -1
SWIDTH 598 0
DWIDTH 11 0
BBX 9 16 1 -5
BITMAP
01A000
01A000
01A000
000000
015000
01A000
05A000
166000
598000
964000
650000
680540
A41580
9A9940
26A600
0AA400
ENDCHAR
STARTCHAR quotedbl.case
ENCODING -1
SWIDTH 464 0
DWIDTH 8 0
BBX 8 5 0 11
BITMAP
952A
952A
952A
952A
952A
ENDCHAR
STARTCHAR quotedblbase.case
ENCODING -1
SWIDTH 464 0
DWIDTH 8 0
BBX 8 5 0 -1
BITMAP
952A
952A
952A
150A
150A
ENDCHAR
STARTCHAR quotedblleft.case
ENCODING -1
SWIDTH 464 0
DWIDTH 8 0
BBX 8 5 0 8
BITMAP
9428
9428
952A
952A
952A
ENDCHAR
STARTCHAR quotedblright.case
ENCODING -1
SWIDTH 464 0
DWIDTH 8 0
BBX 8 5 0 11
BITMAP
952A
952A
952A
150A
150A
ENDCHAR
STARTCHAR quoteleft.case
ENCODING -1
SWIDTH 212 0
DWIDTH 4 0
BBX 4 5 0 8
BITMAP
94
94
95
95
95
ENDCHAR
STARTCHAR quoteright.case
ENCODING -1
SWIDTH 212 0
DWIDTH 4 0
BBX 4 5 0 11
BITMAP
95
95
95
15
15
ENDCHAR
STARTCHAR quotesinglbase.case
ENCODING -1
SWIDTH 212 0
DWIDTH 4 0
BBX 4 5 0 -1
BITMAP
95
95
95
15
15
ENDCHAR
STARTCHAR quotesingle.case
ENCODING -1
SWIDTH 212 0
DWIDTH 4 0
BBX 4 5 0 11
BITMAP
95
95
95
95
95
ENDCHAR
STARTCHAR registered.case
ENCODING -1
SWIDTH 895 0
DWIDTH 16 0
BBX 16 16 0 0
BITMAP
002AA800
019AA640
05900660
16000094
2516A458
182AA525
54281515
542AA816
542AA416
54285415
18281825
25141458
16000094
05900660
019AA540
002AA800
ENDCHAR
STARTCHAR uni030A.case
ENCODING -1
SWIDTH 0 0
DWIDTH 0 0
BBX 4 4 1 17
BITMAP
68
82
82
68
ENDCHAR
STARTCHAR section.case
ENCODING -1
SWIDTH 645 0
DWIDTH 12 0
BBX 11 20 0 -3
BITMAP
01AA40
06AAA4
166A58
158040
15A400
159680
051A60
05A494
265254
294158
290594
26A460
19AA40
0646A0
006954
010254
5AAA84
21A914
090090
01AA40
ENDCHAR
STARTCHAR semicolon.case
ENCODING -1
SWIDTH 338 0
DWIDTH 6 0
BBX 5 12 1 -2
BITMAP
2940
2940
2940
0000
0000
0000
0000
2A00
5A00
5600
9500
A800
ENDCHAR
STARTCHAR seven.case
ENCODING -1
SWIDTH 505 0
DWIDTH 9 0
BBX 9 16 0 0
BITMAP
6AAA40
6AAA40
000000
6AAA40
001500
001A00
005600
009500
00A400
006800
015800
025400
02A000
05A000
055000
0A5000
ENDCHAR
STARTCHAR six.case
ENCODING -1
SWIDTH 558 0
DWIDTH 10 0
BBX 10 16 0 0
BITMAP
06A900
15A540
25A680
5A0950
550550
550000
55A400
550240
55A880
556650
550950
550550
5A0950
29A680
15A540
06A900
ENDCHAR
STARTCHAR slash.case
ENCODING -1
SWIDTH 504 0
DWIDTH 9 0
BBX 9 18 0 -1
BITMAP
001580
002540
002900
005A00
009500
00A500
016800
025800
029400
01A000
056000
0A5000
068000
158000
254000
2A0000
560000
950000
ENDCHAR
STARTCHAR uni00AD.case
ENCODING -1
SWIDTH 445 0
DWIDTH 8 0
BBX 6 3 1 6
BITMAP
AAA0
AAA0
AAA0
ENDCHAR
STARTCHAR sterling.case
ENCODING -1
SWIDTH 618 0
DWIDTH 11 0
BBX 11 16 0 0
BITMAP
02AA40
19A950
26A994
1A0254
1A0000
150000
6AAA00
000000
6AAA00
6AAA00
000000
258000
040000
6AAAA4
6AAAA4
6AAAA4
ENDCHAR
STARTCHAR three.case
ENCODING -1
SWIDTH 558 0
DWIDTH 10 0
BBX 10 16 0 0
BITMAP
06A900
15A540
29A680
560950
550550
000550
002540
000240
002880
002650
000950
550550
560950
29A680
15A540
06A900
ENDCHAR
STARTCHAR threequarters.case
ENCODING -1
SWIDTH 722 0
DWIDTH 13 0
BBX 11 16 1 0
BITMAP
690094
960060
050250
090180
060940
960600
692500
001800
0094A0
006160
025240
018154
094664
060664
250024
180000
ENDCHAR
STARTCHAR uni00B3.case
ENCODING -1
SWIDTH 332 0
DWIDTH 6 0
BBX 4 7 1 9
BITMAP
69
96
05
09
06
96
69
ENDCHAR
STARTCHAR tildecomb.case
ENCODING -1
SWIDTH 0 0
DWIDTH 0 0
BBX 7 3 1 17
BITMAP
6804
8204
41A0
ENDCHAR
STARTCHAR trademark.case
ENCODING -1
SWIDTH 850 0
DWIDTH 15 0
BBX 15 8 0 7
BITMAP
6AA28098
6AA2A198
0A029A58
0A02A598
0A029658
0A028418
0A028018
0A028018
ENDCHAR
STARTCHAR two.case
ENCODING -1
SWIDTH 558 0
DWIDTH 10 0
BBX 10 16 0 0
BITMAP
06A900
15A640
29A680
5A0A50
550550
000950
001650
002580
009940
026600
059800
096000
114000
2AAA80
2AAA80
2AAA80
ENDCHAR
STARTCHAR uni00B2.case
ENCODING -1
SWIDTH 339 0
DWIDTH 6 0
BBX 4 7 1 9
BITMAP
69
9A
09
26
54
AA
AA
ENDCHAR
STARTCHAR underscore.case
ENCODING -1
SWIDTH 667 0
DWIDTH 12 0
BBX 10 3 1 0
BITMAP
AAAAA0
AAAAA0
AAAAA0
ENDCHAR
STARTCHAR yen.case
ENCODING -1
SWIDTH 769 0
DWIDTH 14 0
BBX 14 16 0 0
BITMAP
5A000650
25802580
16805940
09609600
05956800
02589400
00A56000
005A5000
00154000
00154000
02656800
02656800
02656800
00254000
00254000
00254000
ENDCHAR
STARTCHAR zero.case
ENCODING -1
SWIDTH 558 0
DWIDTH 10 0
BBX 10 16 0 0
BITMAP
06A900
15A540
25A680
5A0950
550550
550560
550560
550560
550560
550560
550560
550550
5A0950
29A680
15A540
06A900
ENDCHAR
ENDFONT
